<?xml version="1.0" encoding="UTF-8"?>
<svg width="38px" height="31px" viewBox="0 0 38 31" version="1.1" xmlns="http://www.w3.org/2000/svg" xmlns:xlink="http://www.w3.org/1999/xlink">
    <!-- Generator: Sketch 50.2 (55047) - http://www.bohemiancoding.com/sketch -->
    <title>Page 1</title>
    <desc>Created with Sketch.</desc>
    <defs>
        <polygon id="path-1" points="0 0 38 0 38 31 0 31"></polygon>
    </defs>
    <g id="V1" stroke="none" stroke-width="1" fill="none" fill-rule="evenodd">
        <g id="Landing-Page" transform="translate(-80.000000, -39.000000)">
            <g id="Page-1" transform="translate(80.000000, 39.000000)">
                <mask id="mask-2" fill="white">
                    <use xlink:href="#path-1"></use>
                </mask>
                <g id="Clip-2"></g>
                <path d="M20.5074345,14.199229 L14.7517739,14.199229 L14.7606689,14.1904756 L12.3473481,14.1904756 L8.67705909,14.1904756 C8.67545508,14.1919106 8.6741427,14.1919106 8.67253868,14.1904756 C5.50387039,14.1904756 2.93466806,11.6620227 2.93466806,8.54393224 C2.93466806,5.42555482 5.50387039,2.8986804 8.67253868,2.8986804 C9.10124943,2.8986804 20.5074345,2.88992696 20.5074345,2.88992696 L20.5074345,14.199229 Z M13.7953406,25.000401 C12.8416779,26.9649027 10.8233835,28.2406091 8.6128983,28.2361606 C5.46318661,28.2104743 2.92723124,25.6890528 2.92723124,22.5967922 L2.92723124,22.5465676 C2.95362466,19.4296251 5.54324178,16.9241321 8.70899367,16.9515404 L8.89126865,16.9515404 C9.64078338,16.9515404 10.3888399,17.1106808 11.0479462,17.4608185 L11.0960668,17.4866483 C13.949764,18.8285077 15.1572993,22.1919815 13.7953406,25.000401 Z M36.5607567,2.88992696 L38,0 L8.67253868,0 L8.67253868,0.0014349903 C8.6522697,0 8.63025088,0 8.6099819,0 C8.04565856,0 7.49431319,0.0545296314 6.96207024,0.157705434 C4.48473451,0.634265712 2.3906137,2.16970533 1.18628643,4.26479117 C0.487662883,5.48166294 0.0882619429,6.88795343 0.0882619429,8.38593981 C0.0882619429,10.9700703 1.11118914,13.0720441 2.97841406,14.6090622 C3.27399117,14.8525801 4.20898892,15.2704493 4.53679224,15.4730699 C4.24369407,15.6363718 3.561694,15.7869023 3.11198516,16.1277125 C0.304658802,18.2558031 -0.723372097,21.8744181 0.5228055,25.373355 C2.08584993,29.7558153 6.96207024,32.0605533 11.4154126,30.5236786 C15.868755,28.9852255 18.212228,24.1867615 16.6488919,19.8043011 C16.3555021,18.9827692 16.1477086,18.4588542 15.6160489,17.7660409 C15.466146,17.5705952 14.8383909,17.15617 14.4821527,16.9221231 C14.4763199,16.9149481 14.4688831,16.9061947 14.4617379,16.8990198 L20.5074345,16.9285806 L20.5074345,30.2092723 L23.3028037,30.2092723 L23.3028037,16.9515404 L31.3562956,16.9515404 L32.4223856,14.199229 L23.3100947,14.199229 L23.3100947,2.88992696 L36.5607567,2.88992696 Z" id="Fill-1" fill="#252527" mask="url(#mask-2)"></path>
            </g>
        </g>
    </g>
</svg>